<svg width="357" height="309" viewBox="0 0 357 309" fill="none" xmlns="http://www.w3.org/2000/svg">
<path d="M273.871 0L82.2188 3.34978e-05L82.2189 43.0624L99.188 43.0624L99.188 99H99.2002V163H99.188L99.188 195.934L129.165 212.554L172.354 187.626L142.25 170.245V129.615L142.3 129.586V79.862L142.25 79.8906V43.0624L213.501 43.0624L213.501 72.4283L256.564 97.392V43.0624L273.871 43.0624V0Z" fill="#8E5FD5"/>
<path d="M271.041 112.605L270.991 112.691L213.501 79.3636V79.3843L178.36 59.0955L178.337 59.0558L178.314 59.069L178.262 59.0388L178.209 59.1296L148.3 76.3979V126.122L178.314 108.793L278.008 166.301L277.986 166.339L289.122 172.768L253.496 234.473L227.291 219.343L184.288 244.24L231.965 271.766L223.311 286.755L260.605 308.286L356.431 142.31L319.138 120.779L310.653 135.475L271.041 112.605Z" fill="#8E5FD5"/>
<path d="M213.501 170.752L213.501 136.029L256.564 160.861V195.614L228.046 212.079L228 212L171 245L171.006 245.011L124.635 271.783L133.119 286.479L95.8262 308.01L0 142.034L37.2931 120.503L45.9467 135.492L93.2002 108.21V157.934L67.4779 172.785L103.104 234.49L129.986 218.969L130.003 218.998L187.003 186.098L186.982 186.063L213.501 170.752Z" fill="#8E5FD5"/>
</svg>
